<svg width="9121" height="1276" viewBox="0 0 9121 1276" fill="none" xmlns="http://www.w3.org/2000/svg">
<path d="M456.517 1275.6C365.85 1275.6 279.15 1262 196.417 1234.8C113.683 1206.47 48.5168 1170.2 0.916799 1126L63.8168 993.4C109.15 1033.07 166.95 1065.93 237.217 1092C307.483 1118.07 380.583 1131.1 456.517 1131.1C525.65 1131.1 581.75 1123.17 624.817 1107.3C667.883 1091.43 699.617 1069.9 720.017 1042.7C740.417 1014.37 750.617 982.633 750.617 947.5C750.617 906.7 737.017 873.833 709.817 848.9C683.75 823.967 649.184 804.133 606.117 789.4C564.183 773.533 517.717 759.933 466.717 748.6C415.717 737.267 364.15 724.233 312.017 709.5C261.017 693.633 213.983 673.8 170.917 650C128.983 626.2 94.9835 594.467 68.9168 554.8C42.8501 514 29.8168 461.867 29.8168 398.4C29.8168 337.2 45.6835 281.1 77.4168 230.1C110.283 177.967 160.15 136.6 227.017 106C295.017 74.2667 381.15 58.4 485.417 58.4C554.55 58.4 623.117 67.4666 691.117 85.5999C759.117 103.733 818.05 129.8 867.917 163.8L811.817 299.8C760.817 265.8 706.983 241.433 650.317 226.7C593.65 210.833 538.683 202.9 485.417 202.9C418.55 202.9 363.583 211.4 320.517 228.4C277.45 245.4 245.717 268.067 225.317 296.4C206.05 324.733 196.417 356.467 196.417 391.6C196.417 433.533 209.45 466.967 235.517 491.9C262.717 516.833 297.283 536.667 339.217 551.4C382.283 566.133 429.317 579.733 480.317 592.2C531.317 603.533 582.317 616.567 633.317 631.3C685.45 646.033 732.483 665.3 774.417 689.1C817.484 712.9 852.05 744.633 878.117 784.3C904.184 823.967 917.217 874.967 917.217 937.3C917.217 997.367 900.784 1053.47 867.917 1105.6C835.05 1156.6 784.05 1197.97 714.917 1229.7C646.917 1260.3 560.783 1275.6 456.517 1275.6ZM7544.45 1262V219.9H7136.45V71.9999H8120.75V219.9H7712.75V1262H7544.45ZM8305.91 1262V71.9999H8475.91V1114.1H9120.21V1262H8305.91Z" fill="#00CCA7"/>
<path d="M1622.88 352.5C1696.54 352.5 1761.14 366.667 1816.68 395C1873.34 423.333 1917.54 466.4 1949.28 524.2C1981.01 582 1996.88 655.1 1996.88 743.5V1262H1833.68V762.2C1833.68 674.933 1812.14 609.2 1769.08 565C1727.14 520.8 1667.64 498.7 1590.58 498.7C1532.78 498.7 1482.34 510.033 1439.28 532.7C1396.21 555.367 1362.78 588.8 1338.98 633C1316.31 677.2 1304.98 732.167 1304.98 797.9V1262H1141.78V0.599926H1304.98V604.1L1272.68 539.5C1302.14 480.567 1347.48 434.667 1408.68 401.8C1469.88 368.933 1541.28 352.5 1622.88 352.5ZM2858.21 1262V1071.6L2849.71 1035.9V711.2C2849.71 642.067 2829.31 588.8 2788.51 551.4C2748.84 512.867 2688.77 493.6 2608.31 493.6C2555.04 493.6 2502.91 502.667 2451.91 520.8C2400.91 537.8 2357.84 561.033 2322.71 590.5L2254.71 468.1C2301.17 430.7 2356.71 402.367 2421.31 383.1C2487.04 362.7 2555.61 352.5 2627.01 352.5C2750.54 352.5 2845.74 382.533 2912.61 442.6C2979.47 502.667 3012.91 594.467 3012.91 718V1262H2858.21ZM2562.41 1272.2C2495.54 1272.2 2436.61 1260.87 2385.61 1238.2C2335.74 1215.53 2297.21 1184.37 2270.01 1144.7C2242.81 1103.9 2229.21 1058 2229.21 1007C2229.21 958.267 2240.54 914.067 2263.21 874.4C2287.01 834.733 2324.97 803 2377.11 779.2C2430.37 755.4 2501.77 743.5 2591.31 743.5H2876.91V860.8H2598.11C2516.51 860.8 2461.54 874.4 2433.21 901.6C2404.87 928.8 2390.71 961.667 2390.71 1000.2C2390.71 1044.4 2408.27 1080.1 2443.41 1107.3C2478.54 1133.37 2527.27 1146.4 2589.61 1146.4C2650.81 1146.4 2704.07 1132.8 2749.41 1105.6C2795.87 1078.4 2829.31 1038.73 2849.71 986.6L2882.01 1098.8C2860.47 1152.07 2822.51 1194.57 2768.11 1226.3C2713.71 1256.9 2645.14 1272.2 2562.41 1272.2ZM4442.02 352.5C4514.55 352.5 4578.59 366.667 4634.12 395C4689.65 423.333 4732.72 466.4 4763.32 524.2C4795.05 582 4810.92 655.1 4810.92 743.5V1262H4647.72V762.2C4647.72 674.933 4627.32 609.2 4586.52 565C4545.72 520.8 4488.49 498.7 4414.82 498.7C4360.42 498.7 4312.82 510.033 4272.02 532.7C4231.22 555.367 4199.49 588.8 4176.82 633C4155.29 677.2 4144.52 732.167 4144.52 797.9V1262H3981.32V762.2C3981.32 674.933 3960.92 609.2 3920.12 565C3880.45 520.8 3823.22 498.7 3748.42 498.7C3695.15 498.7 3648.12 510.033 3607.32 532.7C3566.52 555.367 3534.79 588.8 3512.12 633C3489.45 677.2 3478.12 732.167 3478.12 797.9V1262H3314.92V361H3471.32V600.7L3445.82 539.5C3474.15 480.567 3517.79 434.667 3576.72 401.8C3635.65 368.933 3704.22 352.5 3782.42 352.5C3868.55 352.5 3942.79 374.033 4005.12 417.1C4067.45 459.033 4108.25 523.067 4127.52 609.2L4061.22 582C4088.42 512.867 4136.02 457.333 4204.02 415.4C4272.02 373.467 4351.35 352.5 4442.02 352.5ZM5670.51 1262V1071.6L5662.01 1035.9V711.2C5662.01 642.067 5641.61 588.8 5600.81 551.4C5561.14 512.867 5501.08 493.6 5420.61 493.6C5367.34 493.6 5315.21 502.667 5264.21 520.8C5213.21 537.8 5170.14 561.033 5135.01 590.5L5067.01 468.1C5113.48 430.7 5169.01 402.367 5233.61 383.1C5299.34 362.7 5367.91 352.5 5439.31 352.5C5562.84 352.5 5658.04 382.533 5724.91 442.6C5791.78 502.667 5825.21 594.467 5825.21 718V1262H5670.51ZM5374.71 1272.2C5307.84 1272.2 5248.91 1260.87 5197.91 1238.2C5148.04 1215.53 5109.51 1184.37 5082.31 1144.7C5055.11 1103.9 5041.51 1058 5041.51 1007C5041.51 958.267 5052.84 914.067 5075.51 874.4C5099.31 834.733 5137.28 803 5189.41 779.2C5242.68 755.4 5314.08 743.5 5403.61 743.5H5689.21V860.8H5410.41C5328.81 860.8 5273.84 874.4 5245.51 901.6C5217.18 928.8 5203.01 961.667 5203.01 1000.2C5203.01 1044.4 5220.58 1080.1 5255.71 1107.3C5290.84 1133.37 5339.58 1146.4 5401.91 1146.4C5463.11 1146.4 5516.38 1132.8 5561.71 1105.6C5608.18 1078.4 5641.61 1038.73 5662.01 986.6L5694.31 1098.8C5672.78 1152.07 5634.81 1194.57 5580.41 1226.3C5526.01 1256.9 5457.44 1272.2 5374.71 1272.2ZM6608.33 352.5C6681.99 352.5 6746.59 366.667 6802.13 395C6858.79 423.333 6902.99 466.4 6934.73 524.2C6966.46 582 6982.33 655.1 6982.33 743.5V1262H6819.13V762.2C6819.13 674.933 6797.59 609.2 6754.53 565C6712.59 520.8 6653.09 498.7 6576.03 498.7C6518.23 498.7 6467.79 510.033 6424.73 532.7C6381.66 555.367 6348.23 588.8 6324.43 633C6301.76 677.2 6290.43 732.167 6290.43 797.9V1262H6127.23V361H6283.63V604.1L6258.13 539.5C6287.59 480.567 6332.93 434.667 6394.13 401.8C6455.33 368.933 6526.73 352.5 6608.33 352.5Z" fill="black"/>
</svg>
