<svg width="269" height="39" viewBox="0 0 269 39" fill="none" xmlns="http://www.w3.org/2000/svg">
<path d="M13.574 38.4C10.9074 38.4 8.35736 38 5.92402 37.2C3.49069 36.3667 1.57402 35.3 0.174023 34L2.02402 30.1C3.35736 31.2667 5.05736 32.2333 7.12402 33C9.19069 33.7667 11.3407 34.15 13.574 34.15C15.6074 34.15 17.2574 33.9167 18.524 33.45C19.7907 32.9833 20.724 32.35 21.324 31.55C21.924 30.7167 22.224 29.7833 22.224 28.75C22.224 27.55 21.824 26.5833 21.024 25.85C20.2574 25.1167 19.2407 24.5333 17.974 24.1C16.7407 23.6333 15.374 23.2333 13.874 22.9C12.374 22.5667 10.8574 22.1833 9.32402 21.75C7.82402 21.2833 6.44069 20.7 5.17402 20C3.94069 19.3 2.94069 18.3667 2.17402 17.2C1.40736 16 1.02402 14.4667 1.02402 12.6C1.02402 10.8 1.49069 9.15 2.42402 7.65C3.39069 6.11666 4.85736 4.9 6.82402 4C8.82402 3.06667 11.3574 2.6 14.424 2.6C16.4574 2.6 18.474 2.86667 20.474 3.4C22.474 3.93333 24.2074 4.7 25.674 5.7L24.024 9.7C22.524 8.7 20.9407 7.98333 19.274 7.55C17.6074 7.08333 15.9907 6.85 14.424 6.85C12.4574 6.85 10.8407 7.1 9.57402 7.6C8.30736 8.1 7.37402 8.76666 6.77402 9.6C6.20736 10.4333 5.92402 11.3667 5.92402 12.4C5.92402 13.6333 6.30736 14.6167 7.07402 15.35C7.87402 16.0833 8.89069 16.6667 10.124 17.1C11.3907 17.5333 12.774 17.9333 14.274 18.3C15.774 18.6333 17.274 19.0167 18.774 19.45C20.3074 19.8833 21.6907 20.45 22.924 21.15C24.1907 21.85 25.2074 22.7833 25.974 23.95C26.7407 25.1167 27.124 26.6167 27.124 28.45C27.124 30.2167 26.6407 31.8667 25.674 33.4C24.7074 34.9 23.2074 36.1167 21.174 37.05C19.174 37.95 16.6407 38.4 13.574 38.4ZM222.043 38V7.35H210.043V3H238.993V7.35H226.993V38H222.043ZM244.438 38V3H249.438V33.65H268.388V38H244.438Z" fill="#46FFDD"/>
<path d="M47.8787 11.25C50.0454 11.25 51.9454 11.6667 53.5787 12.5C55.2454 13.3333 56.5454 14.6 57.4787 16.3C58.412 18 58.8787 20.15 58.8787 22.75V38H54.0787V23.3C54.0787 20.7333 53.4454 18.8 52.1787 17.5C50.9454 16.2 49.1954 15.55 46.9287 15.55C45.2287 15.55 43.7454 15.8833 42.4787 16.55C41.212 17.2167 40.2287 18.2 39.5287 19.5C38.862 20.8 38.5287 22.4167 38.5287 24.35V38H33.7287V0.899998H38.5287V18.65L37.5787 16.75C38.4454 15.0167 39.7787 13.6667 41.5787 12.7C43.3787 11.7333 45.4787 11.25 47.8787 11.25ZM84.2119 38V32.4L83.9619 31.35V21.8C83.9619 19.7667 83.3619 18.2 82.1619 17.1C80.9952 15.9667 79.2286 15.4 76.8619 15.4C75.2952 15.4 73.7619 15.6667 72.2619 16.2C70.7619 16.7 69.4952 17.3833 68.4619 18.25L66.4619 14.65C67.8286 13.55 69.4619 12.7167 71.3619 12.15C73.2952 11.55 75.3119 11.25 77.4119 11.25C81.0452 11.25 83.8452 12.1333 85.8119 13.9C87.7786 15.6667 88.7619 18.3667 88.7619 22V38H84.2119ZM75.5119 38.3C73.5452 38.3 71.8119 37.9667 70.3119 37.3C68.8452 36.6333 67.7119 35.7167 66.9119 34.55C66.1119 33.35 65.7119 32 65.7119 30.5C65.7119 29.0667 66.0452 27.7667 66.7119 26.6C67.4119 25.4333 68.5286 24.5 70.0619 23.8C71.6286 23.1 73.7286 22.75 76.3619 22.75H84.7619V26.2H76.5619C74.1619 26.2 72.5452 26.6 71.7119 27.4C70.8786 28.2 70.4619 29.1667 70.4619 30.3C70.4619 31.6 70.9786 32.65 72.0119 33.45C73.0452 34.2167 74.4786 34.6 76.3119 34.6C78.1119 34.6 79.6786 34.2 81.0119 33.4C82.3786 32.6 83.3619 31.4333 83.9619 29.9L84.9119 33.2C84.2786 34.7667 83.1619 36.0167 81.5619 36.95C79.9619 37.85 77.9452 38.3 75.5119 38.3ZM130.795 11.25C132.928 11.25 134.811 11.6667 136.445 12.5C138.078 13.3333 139.345 14.6 140.245 16.3C141.178 18 141.645 20.15 141.645 22.75V38H136.845V23.3C136.845 20.7333 136.245 18.8 135.045 17.5C133.845 16.2 132.161 15.55 129.995 15.55C128.395 15.55 126.995 15.8833 125.795 16.55C124.595 17.2167 123.661 18.2 122.995 19.5C122.361 20.8 122.045 22.4167 122.045 24.35V38H117.245V23.3C117.245 20.7333 116.645 18.8 115.445 17.5C114.278 16.2 112.595 15.55 110.395 15.55C108.828 15.55 107.445 15.8833 106.245 16.55C105.045 17.2167 104.111 18.2 103.445 19.5C102.778 20.8 102.445 22.4167 102.445 24.35V38H97.6447V11.5H102.245V18.55L101.495 16.75C102.328 15.0167 103.611 13.6667 105.345 12.7C107.078 11.7333 109.095 11.25 111.395 11.25C113.928 11.25 116.111 11.8833 117.945 13.15C119.778 14.3833 120.978 16.2667 121.545 18.8L119.595 18C120.395 15.9667 121.795 14.3333 123.795 13.1C125.795 11.8667 128.128 11.25 130.795 11.25ZM166.927 38V32.4L166.677 31.35V21.8C166.677 19.7667 166.077 18.2 164.877 17.1C163.71 15.9667 161.943 15.4 159.577 15.4C158.01 15.4 156.477 15.6667 154.977 16.2C153.477 16.7 152.21 17.3833 151.177 18.25L149.177 14.65C150.543 13.55 152.177 12.7167 154.077 12.15C156.01 11.55 158.027 11.25 160.127 11.25C163.76 11.25 166.56 12.1333 168.527 13.9C170.493 15.6667 171.477 18.3667 171.477 22V38H166.927ZM158.227 38.3C156.26 38.3 154.527 37.9667 153.027 37.3C151.56 36.6333 150.427 35.7167 149.627 34.55C148.827 33.35 148.427 32 148.427 30.5C148.427 29.0667 148.76 27.7667 149.427 26.6C150.127 25.4333 151.243 24.5 152.777 23.8C154.343 23.1 156.443 22.75 159.077 22.75H167.477V26.2H159.277C156.877 26.2 155.26 26.6 154.427 27.4C153.593 28.2 153.177 29.1667 153.177 30.3C153.177 31.6 153.693 32.65 154.727 33.45C155.76 34.2167 157.193 34.6 159.027 34.6C160.827 34.6 162.393 34.2 163.727 33.4C165.093 32.6 166.077 31.4333 166.677 29.9L167.627 33.2C166.993 34.7667 165.877 36.0167 164.277 36.95C162.677 37.85 160.66 38.3 158.227 38.3ZM194.51 11.25C196.676 11.25 198.576 11.6667 200.21 12.5C201.876 13.3333 203.176 14.6 204.11 16.3C205.043 18 205.51 20.15 205.51 22.75V38H200.71V23.3C200.71 20.7333 200.076 18.8 198.81 17.5C197.576 16.2 195.826 15.55 193.56 15.55C191.86 15.55 190.376 15.8833 189.11 16.55C187.843 17.2167 186.86 18.2 186.16 19.5C185.493 20.8 185.16 22.4167 185.16 24.35V38H180.36V11.5H184.96V18.65L184.21 16.75C185.076 15.0167 186.41 13.6667 188.21 12.7C190.01 11.7333 192.11 11.25 194.51 11.25Z" fill="white"/>
</svg>
